<?xml version="1.0" standalone="no"?>
<!DOCTYPE svg PUBLIC "-//W3C//DTD SVG 20010904//EN"
 "http://www.w3.org/TR/2001/REC-SVG-20010904/DTD/svg10.dtd">
<svg version="1.0" xmlns="http://www.w3.org/2000/svg"
 width="500.000000pt" height="500.000000pt" viewBox="0 0 500.000000 500.000000"
 preserveAspectRatio="xMidYMid meet">
<metadata>
Created by potrace 1.14, written by Peter Selinger 2001-2017
</metadata>
<g transform="translate(0.000000,500.000000) scale(0.100000,-0.100000)"
fill="#000000" stroke="none">
<path d="M1645 4575 l-25 -24 0 -2058 c0 -2271 -5 -2103 61 -2103 29 0 411 67
662 115 235 46 420 135 595 288 283 247 444 604 445 987 0 222 -46 393 -155
570 -62 102 -207 249 -294 299 -32 19 -67 41 -76 49 -27 22 -22 57 10 77 53
35 182 168 227 236 159 237 218 555 159 848 -65 320 -283 583 -568 687 -138
50 -187 54 -616 54 l-401 0 -24 -25z m771 -548 c99 -50 189 -181 225 -327 20
-82 15 -249 -10 -343 -55 -209 -206 -374 -362 -394 -72 -10 -69 -34 -69 546 0
284 4 521 8 528 23 37 126 32 208 -10z m50 -1661 c169 -84 275 -285 291 -551
16 -269 -70 -512 -235 -670 -76 -73 -270 -146 -306 -116 -14 12 -16 84 -16
677 l0 664 21 21 c20 20 29 21 97 16 59 -4 91 -14 148 -41z"/>
</g>
</svg>
